<svg width="32" height="40" viewBox="0 0 32 40" fill="none" xmlns="http://www.w3.org/2000/svg">
<path d="M4.55225 39.2652C3.49562 39.2652 2.59108 38.8889 1.83863 38.1365C1.08619 37.384 0.709961 36.4795 0.709961 35.4229V12.3692C0.709961 11.3125 1.08619 10.408 1.83863 9.65553C2.59108 8.90309 3.49562 8.52686 4.55225 8.52686H8.39454C8.39454 6.4136 9.14699 4.60453 10.6519 3.09963C12.1568 1.59473 13.9659 0.842285 16.0791 0.842285C18.1924 0.842285 20.0014 1.59473 21.5063 3.09963C23.0112 4.60453 23.7637 6.4136 23.7637 8.52686H27.606C28.6626 8.52686 29.5671 8.90309 30.3196 9.65553C31.072 10.408 31.4483 11.3125 31.4483 12.3692V35.4229C31.4483 36.4795 31.072 37.384 30.3196 38.1365C29.5671 38.8889 28.6626 39.2652 27.606 39.2652H4.55225ZM4.55225 35.4229H27.606V12.3692H23.7637V16.2114C23.7637 16.7558 23.5796 17.212 23.2114 17.5803C22.8431 17.9485 22.3869 18.1326 21.8425 18.1326C21.2982 18.1326 20.842 17.9485 20.4737 17.5803C20.1055 17.212 19.9214 16.7558 19.9214 16.2114V12.3692H12.2368V16.2114C12.2368 16.7558 12.0527 17.212 11.6845 17.5803C11.3163 17.9485 10.86 18.1326 10.3157 18.1326C9.77136 18.1326 9.31509 17.9485 8.94687 17.5803C8.57865 17.212 8.39454 16.7558 8.39454 16.2114V12.3692H4.55225V35.4229ZM12.2368 8.52686H19.9214C19.9214 7.47023 19.5452 6.56569 18.7927 5.81325C18.0403 5.0608 17.1357 4.68457 16.0791 4.68457C15.0225 4.68457 14.1179 5.0608 13.3655 5.81325C12.613 6.56569 12.2368 7.47023 12.2368 8.52686Z" fill="#777777"/>
</svg>
